<svg xmlns="http://www.w3.org/2000/svg" enable-background="new 0 0 2362.861 1684.018" version="1.1" viewBox="0 0 2362.861 1684.018">
  <g id="birds">
      <path d="m2062 119.34c18.05 14.88 25.993 33.089 40.623 50.994 36.105 44.185 28.013 33.673 97.731 56.488 13.884 5.704 29.195 7.606 42.358 15.163 51.205 26.252 71.261 84.878 52.75 121.34-41.215-22.713-46.818-0.154-105.21-26.457-92.524-41.03-100.12-27.23-122.24-10.966-5.164 3.016-2.787 9.294-2.771 14.065 0.787 5.918-1.147 12.048 0.295 17.851 5.623 5.59 12.934 9.147 18.59 14.721 199.66 193.81-72.155 758.67-554.4 762.52-7.082 0.147-14.458-0.934-21.179 1.885-13.802 60.359-5.87 30.141-8.868 55.029-1.328 8.786 5.245 16.048 6 24.589 0.606 5.541 6.655 6.836 10.819 8.901 16.572 7.043 1.197 32.647-0.721 51.603-3.896 24.902-10.65-6.719 7.491 136.7 0.098 6.508 6.032 11.081 5.246 17.851 3.246 13.114 1.065 26.982 5.77 39.801 11.422 32.56 10.744 88.37 92.338 80.093 5.442-0.754 10.065 2.869 15.196 4.016 14.72 2.803 30.244-1.836 44.685 3.033 12.261 3.147 24.523 6.426 37.03 8.491 12.917 0.951 26.277-1.279 38.882 2.459 15.95 7.426 29.834 18.605 45.456 26.654 51.57 30.49 48.235 16.885 51.832 35.604-77.556 27.283-300.54-16.545-282.23-11.458-70.138-19.483-82.748 13.072-134.81-37.571-4.311-7.672-5.59-16.622-7.114-25.179-12.046-65.068-13.218-67.072-6-109.53 11.812-101.71-40.255-186.51-22.261-284.57-3 0.656-5.967 1.393-8.966 2.033 3.278-1.459 6.639-2.705 10.048-3.852-0.016-1.361-0.082-4.065-0.115-5.41-5.754 0.115-11.294 1.82-16.278 4.623-0.361-8.262-10.409-7.704-16.327-6.393 1.885-0.738 3.803-1.475 5.721-2.197 0.311-1.901 0.623-3.786 0.951-5.655-22.654-0.869-45.62 0.115-67.553 6.327-9.442 3.016-20.917-0.066-28.686 7.262-8.344 2.885-17.015 5.114-24.965 9.114 2.901-2.524 4.901-5.639 3.246-9.54-7.344 1.41-15.573 2.426-20.785 8.393 0.574-2.557 1.131-5.114 1.656-7.655-5.213 3.508-10.229 7.295-15.458 10.77-3.049 2.328-7.327 1.836-10.13 4.59-4 3.246-8.508 5.803-13.294 7.688 3.951-3.295 11.13-4.737 9.77-11.262-6.245 1.443-10.868 6.065-16.507 8.688-4.524 0.443-9.163 0.459-13.294 2.639-2.623-3.491-4.967-7.262-4.262-11.819 2.213-0.836 4.426-1.656 6.639-2.541-0.016-1.18-0.033-3.574-0.049-4.77-27.762 4.494-14.307 7.445-24.769 0.328 11.016-2.426 22.425-3.147 33.112-6.95-0.23-1.098-0.705-3.278-0.934-4.377-5.573-0.328-12.72 4.114-16.622-1.525-17.31 4.891 9.263 2.962-72.372 19.474 0.492-2.459 0.967-4.934 1.377-7.376-3.475 1.246-6.77 2.967-9.901 4.901 1.492-2.262 2.967-4.541 4.393-6.836-3.508 0.59-6.95 1.443-10.442 1.967 2.164-1.82 4.426-3.508 6.573-5.344-29.08-1.241-141.41 30.521-487.98 98.616-14.163 1.836-28.391 3.623-42.341 6.754-289.74 42.231-397.92 47.767-397.92 47.767-6.934 0.033-13.77 2.197-20.703 1.475-12.179-2.115-24.49 0.803-36.735 0.852-4.934-0.984-9.917-1.311-14.95-1.016 4.967-2.229 10.229-3.688 15.278-5.672-2.639-0.393-5.311-0.688-7.967-0.951v-0.672c6.95-0.033 13.884-0.016 20.818-0.393 7.213-12.161 12.697-7.46 17.999-9.721 2.869-2.328 6.475-4.672 6.475-8.786 5.623-3.328 12.507-4.344 17.704-8.229 0.229-0.869 0.721-2.606 0.967-3.475-5.524-0.295-11.065-0.41-16.573-0.918 10.114-5.049 20.851-10.311 28.146-19.212-5.206-0.415-98.847 3.891-101.68 4.328 1.016-1.344 1.983-2.705 2.934-4.049-7.262 0.738-14.524 1.443-21.818 1.508 1.77-0.885 3.541-1.771 5.311-2.623-1.016-0.836-2.049-1.656-3.065-2.459 1.902 0.049 3.803 0.033 5.705-0.033 11.452-16.098 37.294-20.703 44.276-20.343-0.033-3.573-3.459-3.475-6.098-4.033 4.033 0.18 8.18 0.607 12.13-0.508 2.623-1.426 2.36-4.557 0.311-6.295 4.41 0.426 8.737-0.623 12.688-2.557-0.82-0.492-2.442-1.475-3.246-1.951 22.01-3.828 73.502-40.407 90.305-39.423 8.335-11.89 14.294-7.948 22.064-7.18-0.623-2.033-1.279-4.033-1.967-6 4.114-3.033 8.409-5.901 13.36-7.377 4.098-0.852 5.803-5.262 9.245-7.049 7.229-0.787 13.458-5.328 20.966-4.229-0.902-0.721-2.705-2.18-3.606-2.901 7.672-2.688 14.606-6.934 20.605-12.376 4.997-4.583 39.985-16.475 51.505-17.114 6.147-0.82 11.491 3.934 17.671 3 3.639-1.131 7.081-4.082 6.295-8.245 4.95 0.377 9.917 0.934 14.655 2.524 0.967-1.803 1.934-3.59 2.901-5.36 6.426-2.77 12.983-6.491 20.179-3.967 0.229-0.984 0.688-2.934 0.902-3.901 19.302 2.138 7.252-1.984 27.359-4.606 1.679-10.024-7.193-17.583 43.522-65.946 13.114-14.458 30.686-23.769 44.653-37.309 5.032-5.934 3.606-14.163 6.754-20.785-2.049-1.902-3.983-3.901-5.688-6.082-8.245 1.344-17.179-3.115-19.507-11.442-1.426 0.016-2.852 0.033-4.262 0.082-0.213-5.131 0.59-10.704 4.41-14.458 7.704-7.508 9.163-18.736 14.868-27.555 37.689-81.241 73.442-56.248 93.666-86.814 47.802-65.687 43.904-38.992 72.241-67.159 7.114-6.475 17.556-3.311 25.9-6.737 6.803-9.098 16.884-14.917 23.851-23.884 15.979-19.377 6.987-11.664 33.506-25.424 12.999-6.311 24.031-16.13 37.571-21.408 12.278-4.852 25.638-7.606 36.211-15.999-2.443-1.41-4.918-2.754-7.393-4.049 3.606-8.796 4.164-4.29 19.999-20.507-1.197-1.246-2.508-2.311-3.918-3.213-4.377 1.213-7.999 4.147-12.097 6.032 1.738-2.508 3.721-4.819 5.737-7.098-3.639-2.819-7.262-5.639-10.835-8.491 3.36-4.746 46.121-52.839 101.75-81.109 45.705-25.471 54.688-63.971 175.2-103.52 38.498-13.451 82.632-18.608 98.354-27.949 6.921-4.112 54.044-21.773 52.217-28.2 19.43-6.159 35.215-18.691 55.188-23.926 7.029-1.84 93.209-10.829 93.385-10.812 18.322 1.764 2.534 13.891 84.945-21.762 192.28-78.895 108.27 20.111 170.18-166.25 54.265-163.37 276.56-134.7 390.43-40.834z"/>
  </g>

    <g id="helicopter">
        <path d="m2616.4 384.62c-10.789-21.247-821.18-41.467-855.22-49.774-4.615-1.126-8.547-2.267-13.397-1.516-2.819 0.436-8.641-15.396-9.048-15.815-10.655-10.984-25.748 4.484-26.841-4.611-2.067-17.183-80.144-44.413-118.46-22.623-2.806 1.596-3.836 5.682-7.9 5.453-0.215-0.012-0.932 1.669-0.697 2.29 0.589 1.558 1.896 2.746 3.64 2.751 7.355 0.023 14.016 4.446 21.626 3.327 0.949-0.14 3.296 2.457 3.257 3.732-0.114 3.72-0.343 0.194-33.525-0.135-7.837-0.077-15.627-4.038-19.925-10.664-0.538-0.83-1.493-1.822-2.321-1.28-0.775 0.508-0.376 1.68-0.319 2.604 0.125 2.02-2.383 3.67-4.188 2.755s-1.956-3.914-0.253-5.006c-7.003 1.156-14.35 1.951-21.165 3.61 5.311 1.491 4.335 13.767-17.846 4.081-54.743-3.234-908.56-165.03-968.17-162.01 21.216 12.584 163.9 27.126 461.52 84.61 450.25 86.968 414.45 86.296 438.81 80.838 23.396-3.732 46.179 8.431 69.681 11.433 18.837 2.408 14.01 6.715 17.64 13.35 2.181 3.985 19.207 5.206 20.774 4.532 3.354-1.443 15.544-0.93 22.357 2.677 7.682 4.067 8.22 47.92-2.23 45.975-64.185-11.965-299.33-21.876-324.23-5.627 0.448-1.394-0.072-3.044-1.238-3.931-7.401-5.628-2.672 9.978-0.19 12.595 3.71 3.905 8.924 6.702 11.735 11.409 0.888 1.486 0.228 3.442 2.183 4.244 0.39 0.16 10.643-2.413 5.886 3.217-1.926 2.28-5.71 0.731-7.97 0.708-5.161-0.053-6.998 4.283-10.476 7.028-12.277 9.687-27.385-0.263-39.51 0.437-37.996 2.191-54.053 24.739-51.084 35.539 2.696 9.804 17.213 10.98 24.371 15.842 4.799 3.26 10.786 4.376 16.207 6.465 7.393 2.893 0.805 9.316 3.671 13.746-0.998-1.55-9.931 4.575-10.992 5.11-21.479 10.836-727.31-60.08-759.38-60.08-21.023-1.733-15.399-10.662-19.977-18.016-19.85-31.889-37.525-78.856-62.166-121.98-95.788-191.39-105.3-227.14-123.83-236.58-11.977-6.098-107.01-11.295-120.3-11.898-6.072-0.275-23.294-4.496-27.121 2.118-1.077 1.862-2.285 7.176-0.551 8.983 2.782 2.898 8.269-4.211 10.991 9.093 1.471 7.186 34.82 170.44 34.82 170.44 4.161 14.934 10.571 28.45 12.44 44.136 4.065 34.124-0.377 26.624-29.877 66.648-36.606 49.674-47.337 68.799-50.014 88.103-2.133 15.308 0.811 32.674 15.719 39.735 3.775 1.788 41.032 37.832 42.19 39.161 2.418 2.775-18.843 72.086-23.676 89.955-2.098 7.756-6.919 17.558-1.541 25.002 6.107 8.453 22.293 10.77 31.578 14.121 95.12 34.325 78.825 21.534 96.654 13.453 29.071-13.178 92.522-75.574 172.18-125.78 26.225-16.531 5.935-11.528 153.18 13.015 0.015 3e-3 525.35 91.818 525.35 91.818 23.287 1.045 36.181 13.042 111.34 62.864 169.33 112.24 219.86 129.36 213.03 148.22-4.435 12.236-20.422 1.687-55.749 2.383-12.912 0.255-22.347 24.156-29.124 40.987-13.259 32.933-8.596 59.254-17.372 61.123-8.45 1.799-20.475-6.023-27.858-1.76-21.893 12.639-8.291 44.363 14.829 44.556 7.409 0.062 14.089-1.206 21.011 2.717 1.908 1.081 5.258 2.221 6.068 4.506 0.899 2.537-2.063 4.764-1.15 6.958 1.643 3.953 16.268 6 20.024 7.25 65.321 21.747 105.99 23.628 130.82 26.506 419.81 48.663 471.58 73.866 517.81 19.22 0.846-1 35.708-38.58 57.489-70.612 7.427-10.923 15.237-22.446 28.649-27.862 5.766-2.329 7.719-8.522 12.199-12.294 5.054-4.255 13.581-2.64 19.77-2.171 18.965 1.436 37.918-1.396 56.605-4.334 17.262-2.714 34.747-3.877 51.925-7.009 60.178-10.972 84.364-25.857 97.64-34.683 9.687-6.44 16.241-15.662 22.945-25.041 51.249-71.702-155.55-305.78-347.7-335.15-5.134-0.785-12.721-0.205-17.432-2.24-3.811-1.646-4.284-5.577-6.532-8.881-9.611-14.131-23.784-11.669-31.006-35.949-1.409-4.739-5.507-1.47-6.503-4.497-3.037-9.241-10.066-16.176-14.153-24.768-2.473-5.198-6.128-9.23-10.468-12.8-1.516 5.799 2.803 10.317 4.478 14.968 11.79 32.734 22.878 46.595 23.006 59.462 0.051 5.056-5.825 6.474-11.684 2.296-7.424-5.294-14.766-10.612-21.252-17.29-4.688-4.827-11.888-7.121-17.616-11.055-19.237-13.32-79.878-62.171-157.73-88.667-27.925-9.507-28.057-8.579-26.409-17.683 1.372-7.582 3.082-15.103 5.142-22.528 2.077-7.484 1.222-14.037 10.715-12.246 3.123 0.589 5.762-1.016 8.472-1.546 8.139-1.592 14.513 2.649 21.397 5.023 6.41 2.21 13.42-0.144 16.308-7.127 1.551-3.749 2.884-4.363 7.187-4.374 21.398-0.054 27.129-4.683 30.5 1.147 0.23 0.397 1.001 0.854 1.364 0.748 19.797-5.809 38.895-0.311 58.192 3.253 58.422 10.794 534.16 13.21 776.75 33.13 2.339 0.192 2.027-2.011 1.243-3.555zm-2301.1 55.866c-8.474-1.259-17.466 1.252-22.156-7.184-6.212-11.174-12.187-21.217-24.552-26.538-17.243-7.42-39.447-0.25-49.095 15.853s-5.495 39.064 9.182 50.767c14.677 11.704 37.985 10.642 51.537-2.347 8.183-7.842 12.002-18.161 34.047-15.881 7.99 0.827 29.065-0.022 27.887 11.795-5.381 53.968-94.448 101.61-155.18 39.607-14.839-15.15-25.006-34.661-26.926-55.936-6.446-71.478 72.285-122.2 130.29-95.091 30.367 14.19 39.922 22.591 58.874 69.098 0.702 1.722 1.413 3.486 1.502 5.343 0.828 17.356-25.262 12.022-35.411 10.514zm1217.3 450.22c7.41 2.228 12.797 6.99 17.829 12.658 1.791 2.018 8.101 6.466 7.938 9.402-0.383 6.892-44.197-3.039-67.075-6.621-11.489-1.798-28.477 0.233-32.931-22.329-3.875-19.636 3.573-14.354 74.239 6.89zm463.54 103.64c7.542 1.469 7.026 0.804-22.99 27.731-5.372 4.82-10.982 12.961-18.103 15.31-3.726 1.229-33.404 0.255-36.688-5.095-1.125-1.831 0.543-4.005 1.983-5.822 33.896-42.789 27.738-41.476 75.798-32.124zm-68.413-7.271c3.357 4.703-35.247 29.524-41.929 34.103-5.162 3.537-10.624 9.155-17.182 4.601-11.782-8.181-71.597-12.319-112.55-19.434-59.382-10.317-283.55-33.744-284.55-33.868-13.614-1.682-10.529-2.8-8.101-37.765 0.234-3.377 1.416-5.499 5.441-4.837 22.783 3.749 454.96 51.717 458.87 57.2zm-139.05-47.669c4.799-11.581 84.371-4.881 94.517 16.287 2.257 4.71-3.505 2.817-53.502-4.119-36.236-5.028-44.532-3.685-41.015-12.168zm-26.388-2.462c-1.24 8.657-7.385 4.909-13.434 4.063-6.575-0.919-13.256-0.944-19.752-2.43-42.34-9.681-98.005-6.546-86.839-19.212 2.352-2.668 13.999-4.482 17.416-3.978 69.273 10.217 104.58 7.812 102.61 21.557z"/>
    </g>

    <g id="jumbo">
        <path d="m1733.6 60.252c18.331-3.138 59.632 5.091 70.063 8.848-0.915 4.269-32.101 112.53-36.892 118.54 2.341 10.172-109.54 363.44-110.12 378.6 442.86-7.948 833.9-39.227 833.9-39.227 38.889-5.272 60.389 10.324 166.27 21.152 0.779 0.835 2.354 2.544 3.133 3.399-17.639-2.563-35.544-2.81-53.05-6.342-13.614-2.601-27.57-0.987-40.975 1.899-14.125 1.177-429.59 54.185-432.64 55.291-28.686 10.724-38.864 10.445-39.987 17.126 99.625 1.745 119.91-6.48 143.11 0.38-1.386 4.196-6.323 3.209-9.74 3.646-3.811 0.067-111.74 8.645-123.68 10.994-11.221 0.57-22.5-0.38-33.664 1.025-4.481 0.171-6.247 5.013-9.057 7.747-3.095 4.652-9.304 4.462-14.108 5.867 4.786 27.204 12.9 21.12 15.551 32.81-5.354 1.709-10.975 2.165-16.386 3.513-11.9 6.788-10.123 18.775-71.392 2.905-6.342-1.5-11.848 2.848-17.62 4.538-10.861 4.614-22.614 0.627-33.664-0.797-36.953-4.684-62.62-12.979-76.006-38.145-1e-3 0-137.69 13.728-137.7 13.728-13.108 9.181-4.675 17.066-26.848 39.835-5.981 6.399-14.487 10.101-23.145 10.823-31.821 1.927-278.72 46.734-364.53 49.594-3.169 26.972-1.526 19.832-15.854 34.101 7.462 0.304 15.38-2.032 22.557 0.703 11.086 9.478 11.408 34.938-0.019 44.126-6.209 2.905-15.038 2.259-18.759-4.196-3.19-5.051-7.766-9.095-13.69-10.481-10.721 22.335-11.062 16.25-27.304 15.171-5.373 2.032-8.487 9.228-15.171 7.918-12.114 0-13.424-17.506-25.823-17.088-2.316 5.772-4.405 12.095-9.456 16.12-15.279 5.531-20.076-8.072-24.266-18.076-6.892 1.196-14.715 2.943-20.943-1.272-9-10.139-8.278-25.31-3.987-37.367 3.133-11.089 21.076-12.304 26.582-2.506 2.203 3.285 2.658 7.253 3.361 11.069 2.658-0.19 5.335-0.418 8.013-0.627 12.045-24.019 7.656-24.154 2.677-31.803 2.165-2.051 3.589-4.576 4.253-7.462-10.709-2.127-23.411-2.696-31.31-11.107-3.171 1.348-7.994 0.797-9.342 4.614-4.215 13.082-6.247 26.905-11.715 39.569-9.38-1.215-19.177 2.146-27.93-2.886-6.57-1.196-7.025-11.601-14.411-10.177-8.126 0.854-15.342-5.867-23.449-3.608-1.766 2.658 2.221 4.234 3.285 6.285-4.538 5.221-8.772 11.468-7.082 18.778 6.987-0.721 15.607-4.519 21.19 1.728 13.365 15.332 8.287 50.248-11.601 45.949-10.5-0.437-11.449-17.012-22.538-15.664-5.165 3.74-6.114 11.943-12.266 15.152-19.535 3.998-19.162-8.833-22.671-18.873-6.79 1.045-29.073 13.349-26.677-28.348 0.04-14.643 12.606-23.565 25.196-15.19 3.911 4.063 4.975 9.892 6.646 15.095 3.342-0.304 6.721-0.74 9.816-2.164 14.042-20.238 0.388-28.623 3.949-35.981 2.108-4.994 2.013-10.481 0.323-15.569-4.817 5.375-2.054 8.953-13.405 33.227-11.677-2.127-23.354-4.804-34.348-9.399-7.405-3.076-15.513-4.12-22.766-7.519-4.842-3.665-6.532-9.892-10.614-14.107-7.747-4.519-16.861-6.228-24.455-11.032-1.861-3.399-3.247-7.272-3.627-11.126 2.013-9.626 8.183-17.582 11.601-26.677-10.956-3.494-40.096-7.341-44.183-7.31-7.454 3.555-17.404 16.671-37.841 36.531-2.791 2.677-2.335 7.12-1.044 10.443 2.981 4.728 7.823 8.354 9.247 14.031 6.193 28.982-3.635 32.589-12 38.107-0.057 1.063-0.171 3.228-0.209 4.291 9.109-1.048 28.196-10.03 28.196 23.392 0.399 9.361-3.664 19.557-12.304 24-7.272 1.5-13.861-3.93-17.031-10.025-2.449-4.861-8.183-5.886-12.513-8.411-4.253 5.354-5.089 14.259-12.095 16.785-4.576 0.209-9.911 0.494-13.785-2.279-12.185-14.085-9.179-44.767 8.658-47.392 0.019-3.057 0.076-6.114 0.114-9.152-34.273 34.273-42.297-52.997-8.278-40.898 7.101 2.962 8.544 11.202 11.221 17.544 2.639 0.285 5.297 0.589 7.994 0.854 4.47-15.643-3.458-33.685-3.608-68.79-11.911 3.43-19.29 18.211-34.784 26.43-4.462 2.297-6.721 7.367-11.069 9.683-4.709 0.095-8.696-3.342-9.93-7.766 3.816 0.152 7.766 1.082 11.563 0.133 27.353-21.218 21.969-16.682 24.778-42.436-22.043-6.495-64.444-7.358-82.063-20.506-4.158-3-8.221-6.797-13.728-6.57 0.446 11.229 5.202 19.19-6.475 37.519-20.409 2.268-16.654-9e-3 -25.614-15.456-3.646 5.924-5.525 15.55-13.804 16.348-21.735 4.209-23.161-27.215-12.968-47.962-9.532-2.905-19.69-2.601-29.316-5.221-10.329-1.519-20.373-5.43-30.892-5.335-13.177 7.291-25.139 18.285-40.689 20.031 6.209 10.082 5.183 21.873 5.259 33.171-17.631 7.734-9.034 15.057-41.411 12.38-10.253-0.892-20.088-6.892-30.531-4.329-26.774 4.773-67.709-7.83-90.094-27.152-20.209-21.934-13.797-45.471-12.987-56.924-12.621 2.559-9.951 19.56-34.557 23.601 9.842 21.507 5.774 14.901 5.905 33.588-14.325 11.534-12.842 23.111-63.569 12.285-13.785 4.633-28.671 4.766-42.683 0.816-104.23-19.048-80.432-102.01-41.943-119.66 13.747-7.5 29.829-6.494 44.905-5.449 2.981 0.74 5.07-1.709 7.31-3.19-20.165-7.865-147.76-26.572-159.59-32.183 0.095-3 0.152-6 0.152-9 3.456-3.19 7.158-6.057 11.164-8.487-1.139-1.101-2.297-2.203-3.437-3.304 28.355-22.175 81.518 21.75 368.35 50.848 16.576 1.063 33.247-0.664 49.803 1.101 19.424 2.051 39.076 1.633 58.385-1.253-1.234-3.019-2.867-5.905-3.57-9.095 0.759-7.196 3.209-14.07 4.709-21.114 1.044-3.057-2.051-4.918-3.589-7.025-36.892-43.352-48.636-89.145-43.917-114.93 4.994-16.386 16.462-29.886 28.633-41.525 10.367-9.892 19.69-20.962 31.443-29.297 7.348-5.202 13.747-11.582 19.709-18.285 16.437-22.25 47.388-49.254 74.62-45.075 61.569-3.425 180.34 43.963 181.5 44.107 2.184-4.443 3.361-10.177 8.146-12.626-1.139 5.183-2.449 10.329-3.475 15.55 39.55 16.443 78.303 34.879 115.76 55.67 16.31 7.367 30.038 20.221 47.791 24.361 205.13 53.479 37.161 7.239 335.66 88.612 4.389 1.196 9.682 4.003 14.067 2.988 8.24-1.907 22.063-25.635 43.234-49.334 13.808-15.464 287.8-373.29 298.52-377.51m76.879 553.36c-37.139 2.278-74.202 4.785-111.38 6.513-0.532 2.259-1.082 4.5-1.576 6.778 30.077 2.443 44.328-2.735 139.57-5.43 2.753 0.095 4.823-2.658 3.835-5.278-9.853-2.906-20.258-4.425-30.454-2.583m-958.26 80.372c-2.373 11.449-2.279 23.183 0.361 34.595 2.544-0.968 5.146-2.07 6.797-4.329 6.987-8.601 16.006-15.987 19.747-26.753-8.81-2.146-17.829-3.589-26.905-3.513m361.4 69.189c-0.266 14.981 2.791 29.829 0.456 44.772 7.576-1.348 15.19-1.728 22.804-0.437 6.266-3.873 13.424-6.626 18.683-11.943 1.158-3.835-1.785-7.671-2.867-11.259-2.606 4.034-8.149 18.433-24.228 11.62-9.247-8.335-10.025-21.873-8.753-33.455-2.051 0.209-4.083 0.437-6.095 0.702z"/>
    </g>
</svg>